0
SECTION
2
HEADER
9
$INSUNITS
70
4
0
ENDSEC
0
SECTION
2
ENTITIES
0
LINE
8
CND
10
80
20
-500
11
240
21
-500
0
LINE
8
CND
10
240
20
-500
11
240
21
500
0
LINE
8
CND
10
240
20
500
11
80
21
500
0
LINE
8
CND
10
80
20
500
11
80
21
-500
0
LINE
8
WTR
10
320
20
-480
11
1020
21
-480
0
LINE
8
WTR
10
1020
20
-480
11
1020
21
-30
0
LINE
8
WTR
10
1020
20
-30
11
320
21
-30
0
LINE
8
WTR
10
320
20
-30
11
320
21
-480
0
LINE
8
ELE
10
380
20
80
11
800
21
80
0
LINE
8
ELE
10
800
20
80
11
800
21
430
0
LINE
8
ELE
10
800
20
430
11
380
21
430
0
LINE
8
ELE
10
380
20
430
11
380
21
80
0
LINE
8
GBX
10
2480
20
-160
11
2980
21
-160
0
LINE
8
GBX
10
2980
20
-160
11
2980
21
160
0
LINE
8
GBX
10
2980
20
160
11
2480
21
160
0
LINE
8
GBX
10
2480
20
160
11
2480
21
-160
0
LINE
8
ENG
10
3000
20
40
11
3600
21
40
0
LINE
8
ENG
10
3600
20
40
11
3600
21
540
0
LINE
8
ENG
10
3600
20
540
11
3000
21
540
0
LINE
8
ENG
10
3000
20
540
11
3000
21
40
0
LINE
8
STM
10
3220
20
-590
11
3720
21
-590
0
LINE
8
STM
10
3720
20
-590
11
3720
21
-90
0
LINE
8
STM
10
3720
20
-90
11
3220
21
-90
0
LINE
8
STM
10
3220
20
-90
11
3220
21
-590
0
LINE
8
FUE
10
2600
20
-590
11
3160
21
-590
0
LINE
8
FUE
10
3160
20
-590
11
3160
21
-290
0
LINE
8
FUE
10
3160
20
-290
11
2600
21
-290
0
LINE
8
FUE
10
2600
20
-290
11
2600
21
-590
0
LINE
8
RCV
10
2700
20
-180
11
2980
21
-180
0
LINE
8
RCV
10
2980
20
-180
11
2980
21
170
0
LINE
8
RCV
10
2980
20
170
11
2700
21
170
0
LINE
8
RCV
10
2700
20
170
11
2700
21
-180
0
LINE
8
BODY
10
0
20
-745
11
3765
21
-745
0
LINE
8
BODY
10
3765
20
-745
11
3765
21
745
0
LINE
8
BODY
10
3765
20
745
11
0
21
745
0
LINE
8
BODY
10
0
20
745
11
0
21
-745
0
ENDSEC
0
EOF