0
SECTION
2
ENTITIES
0
LINE
8
OUTLINE
10
75
20
975
11
1035.075
21
975
0
LINE
8
OUTLINE
10
1035.075
20
975
11
1035.075
21
595.05
0
LINE
8
OUTLINE
10
1035.075
20
595.05
11
75
21
595.05
0
LINE
8
OUTLINE
10
75
20
595.05
11
75
21
975
0
LINE
8
OUTLINE
10
355.5
20
943.125
11
704.85
21
943.125
0
LINE
8
OUTLINE
10
704.85
20
943.125
11
704.85
21
626.925
0
LINE
8
OUTLINE
10
704.85
20
626.925
11
355.5
21
626.925
0
LINE
8
OUTLINE
10
355.5
20
626.925
11
355.5
21
943.125
0
LINE
8
OUTLINE
10
95.4
20
912.525
11
136.2
21
912.525
0
LINE
8
OUTLINE
10
136.2
20
912.525
11
136.2
21
657.525
0
LINE
8
OUTLINE
10
136.2
20
657.525
11
95.4
21
657.525
0
LINE
8
OUTLINE
10
95.4
20
657.525
11
95.4
21
912.525
0
LINE
8
OUTLINE
10
156.6
20
907.425
11
335.1
21
907.425
0
LINE
8
OUTLINE
10
335.1
20
907.425
11
335.1
21
792.675
0
LINE
8
OUTLINE
10
335.1
20
792.675
11
156.6
21
792.675
0
LINE
8
OUTLINE
10
156.6
20
792.675
11
156.6
21
907.425
0
LINE
8
OUTLINE
10
171.9
20
764.625
11
279.0
21
764.625
0
LINE
8
OUTLINE
10
279.0
20
764.625
11
279.0
21
675.375
0
LINE
8
OUTLINE
10
279.0
20
675.375
11
171.9
21
675.375
0
LINE
8
OUTLINE
10
171.9
20
675.375
11
171.9
21
764.625
0
LINE
8
OUTLINE
10
707.4
20
825.825
11
834.9
21
825.825
0
LINE
8
OUTLINE
10
834.9
20
825.825
11
834.9
21
744.225
0
LINE
8
OUTLINE
10
834.9
20
744.225
11
707.4
21
744.225
0
LINE
8
OUTLINE
10
707.4
20
744.225
11
707.4
21
825.825
0
LINE
8
OUTLINE
10
840.0
20
774.825
11
993.0
21
774.825
0
LINE
8
OUTLINE
10
993.0
20
774.825
11
993.0
21
647.325
0
LINE
8
OUTLINE
10
993.0
20
647.325
11
840.0
21
647.325
0
LINE
8
OUTLINE
10
840.0
20
647.325
11
840.0
21
774.825
0
LINE
8
OUTLINE
10
896.1
20
935.475
11
1023.6
21
935.475
0
LINE
8
OUTLINE
10
1023.6
20
935.475
11
1023.6
21
807.975
0
LINE
8
OUTLINE
10
1023.6
20
807.975
11
896.1
21
807.975
0
LINE
8
OUTLINE
10
896.1
20
807.975
11
896.1
21
935.475
0
LINE
8
OUTLINE
10
738.0
20
935.475
11
880.8
21
935.475
0
LINE
8
OUTLINE
10
880.8
20
935.475
11
880.8
21
858.975
0
LINE
8
OUTLINE
10
880.8
20
858.975
11
738.0
21
858.975
0
LINE
8
OUTLINE
10
738.0
20
858.975
11
738.0
21
935.475
0
LINE
8
OUTLINE
10
763.5
20
830.925
11
834.9
21
830.925
0
LINE
8
OUTLINE
10
834.9
20
830.925
11
834.9
21
741.675
0
LINE
8
OUTLINE
10
834.9
20
741.675
11
763.5
21
741.675
0
LINE
8
OUTLINE
10
763.5
20
741.675
11
763.5
21
830.925
0
LINE
8
OUTLINE
10
279.0
20
987
11
279.0
21
583.05
0
LINE
8
OUTLINE
10
829.8000000000001
20
987
11
829.8000000000001
21
583.05
0
LINE
8
OUTLINE
10
75
20
565.05
11
1035.075
21
565.05
0
LINE
8
OUTLINE
10
70
20
560.05
11
80
21
570.05
0
LINE
8
OUTLINE
10
1030.075
20
560.05
11
1040.075
21
570.05
0
LINE
8
OUTLINE
10
279.0
20
985
11
829.8000000000001
21
985
0
LINE
8
OUTLINE
10
274.0
20
980
11
284.0
21
990
0
LINE
8
OUTLINE
10
824.8000000000001
20
980
11
834.8000000000001
21
990
0
LINE
8
OUTLINE
10
75
20
480
11
1035.075
21
480
0
LINE
8
OUTLINE
10
1035.075
20
480
11
1035.075
21
123.0
0
LINE
8
OUTLINE
10
1035.075
20
123.0
11
75
21
123.0
0
LINE
8
OUTLINE
10
75
20
123.0
11
75
21
480
0
LINE
8
OUTLINE
10
95.4
20
365.25
11
136.2
21
365.25
0
LINE
8
OUTLINE
10
136.2
20
365.25
11
136.2
21
225.0
0
LINE
8
OUTLINE
10
136.2
20
225.0
11
95.4
21
225.0
0
LINE
8
OUTLINE
10
95.4
20
225.0
11
95.4
21
365.25
0
LINE
8
OUTLINE
10
156.6
20
245.39999999999998
11
335.1
21
245.39999999999998
0
LINE
8
OUTLINE
10
335.1
20
245.39999999999998
11
335.1
21
204.60000000000002
0
LINE
8
OUTLINE
10
335.1
20
204.60000000000002
11
156.6
21
204.60000000000002
0
LINE
8
OUTLINE
10
156.6
20
204.60000000000002
11
156.6
21
245.39999999999998
0
LINE
8
OUTLINE
10
171.9
20
268.35
11
279.0
21
268.35
0
LINE
8
OUTLINE
10
279.0
20
268.35
11
279.0
21
204.60000000000002
0
LINE
8
OUTLINE
10
279.0
20
204.60000000000002
11
171.9
21
204.60000000000002
0
LINE
8
OUTLINE
10
171.9
20
204.60000000000002
11
171.9
21
268.35
0
LINE
8
OUTLINE
10
707.4
20
283.65
11
834.9
21
283.65
0
LINE
8
OUTLINE
10
834.9
20
283.65
11
834.9
21
194.39999999999998
0
LINE
8
OUTLINE
10
834.9
20
194.39999999999998
11
707.4
21
194.39999999999998
0
LINE
8
OUTLINE
10
707.4
20
194.39999999999998
11
707.4
21
283.65
0
LINE
8
OUTLINE
10
840.0
20
329.54999999999995
11
993.0
21
329.54999999999995
0
LINE
8
OUTLINE
10
993.0
20
329.54999999999995
11
993.0
21
202.04999999999995
0
LINE
8
OUTLINE
10
993.0
20
202.04999999999995
11
840.0
21
202.04999999999995
0
LINE
8
OUTLINE
10
840.0
20
202.04999999999995
11
840.0
21
329.54999999999995
0
LINE
8
OUTLINE
10
896.1
20
367.79999999999995
11
1023.6
21
367.79999999999995
0
LINE
8
OUTLINE
10
1023.6
20
367.79999999999995
11
1023.6
21
202.04999999999995
0
LINE
8
OUTLINE
10
1023.6
20
202.04999999999995
11
896.1
21
202.04999999999995
0
LINE
8
OUTLINE
10
896.1
20
202.04999999999995
11
896.1
21
367.79999999999995
0
LINE
8
OUTLINE
10
738.0
20
301.5
11
880.8
21
301.5
0
LINE
8
OUTLINE
10
880.8
20
301.5
11
880.8
21
225.0
0
LINE
8
OUTLINE
10
880.8
20
225.0
11
738.0
21
225.0
0
LINE
8
OUTLINE
10
738.0
20
225.0
11
738.0
21
301.5
0
LINE
8
OUTLINE
10
763.5
20
357.6
11
834.9
21
357.6
0
LINE
8
OUTLINE
10
834.9
20
357.6
11
834.9
21
311.70000000000005
0
LINE
8
OUTLINE
10
834.9
20
311.70000000000005
11
763.5
21
311.70000000000005
0
LINE
8
OUTLINE
10
763.5
20
311.70000000000005
11
763.5
21
357.6
0
LINE
8
OUTLINE
10
75
20
123.0
11
1035.075
21
123.0
0
CIRCLE
8
WHEEL
10
279.0
20
194.39999999999998
40
71.4
0
CIRCLE
8
WHEEL
10
829.8000000000001
20
194.39999999999998
40
71.4
0
ENDSEC
0
EOF