# target envelopes only; mm
mtllib assembly.mtl
o CND
usemtl CND
v 80 -500 400
v 240 -500 400
v 240 500 400
v 80 500 400
v 80 -500 950
v 240 -500 950
v 240 500 950
v 80 500 950
f 1 4 3 2
f 5 6 7 8
f 1 2 6 5
f 2 3 7 6
f 3 4 8 7
f 4 1 5 8
o WTR
usemtl WTR
v 320 -480 320
v 1020 -480 320
v 1020 -30 320
v 320 -30 320
v 320 -480 480
v 1020 -480 480
v 1020 -30 480
v 320 -30 480
f 9 12 11 10
f 13 14 15 16
f 9 10 14 13
f 10 11 15 14
f 11 12 16 15
f 12 9 13 16
o ELE
usemtl ELE
v 380 80 320
v 800 80 320
v 800 430 320
v 380 430 320
v 380 80 570
v 800 80 570
v 800 430 570
v 380 430 570
f 17 20 19 18
f 21 22 23 24
f 17 18 22 21
f 18 19 23 22
f 19 20 24 23
f 20 17 21 24
o GBX
usemtl GBX
v 2480 -160 280
v 2980 -160 280
v 2980 160 280
v 2480 160 280
v 2480 -160 630
v 2980 -160 630
v 2980 160 630
v 2480 160 630
f 25 28 27 26
f 29 30 31 32
f 25 26 30 29
f 26 27 31 30
f 27 28 32 31
f 28 25 29 32
o ENG
usemtl ENG
v 3000 40 310
v 3600 40 310
v 3600 540 310
v 3000 540 310
v 3000 40 810
v 3600 40 810
v 3600 540 810
v 3000 540 810
f 33 36 35 34
f 37 38 39 40
f 33 34 38 37
f 34 35 39 38
f 35 36 40 39
f 36 33 37 40
o STM
usemtl STM
v 3220 -590 310
v 3720 -590 310
v 3720 -90 310
v 3220 -90 310
v 3220 -590 960
v 3720 -590 960
v 3720 -90 960
v 3220 -90 960
f 41 44 43 42
f 45 46 47 48
f 41 42 46 45
f 42 43 47 46
f 43 44 48 47
f 44 41 45 48
o FUE
usemtl FUE
v 2600 -590 400
v 3160 -590 400
v 3160 -290 400
v 2600 -290 400
v 2600 -590 700
v 3160 -590 700
v 3160 -290 700
v 2600 -290 700
f 49 52 51 50
f 53 54 55 56
f 49 50 54 53
f 50 51 55 54
f 51 52 56 55
f 52 49 53 56
o RCV
usemtl RCV
v 2700 -180 740
v 2980 -180 740
v 2980 170 740
v 2700 170 740
v 2700 -180 920
v 2980 -180 920
v 2980 170 920
v 2700 170 920
f 57 60 59 58
f 61 62 63 64
f 57 58 62 61
f 58 59 63 62
f 59 60 64 63
f 60 57 61 64